<svg width="600" height="80" viewBox="0 0 463 122" fill="none" xmlns="http://www.w3.org/2000/svg">
<rect x="30" y="7" width="210" height="108" rx="13" fill="#141345"/>
<path d="M264.889 53.6094C264.983 52.2718 264.628 51.236 263.823 50.5021C263.03 49.7682 261.776 49.4013 260.059 49.4013C258.923 49.4013 257.952 49.5492 257.147 49.8452C256.342 50.1293 255.709 50.5317 255.247 51.0526C254.786 51.5616 254.496 52.1534 254.377 52.8281C254.271 53.3608 254.3 53.8343 254.466 54.2486C254.632 54.6629 254.922 55.0298 255.336 55.3494C255.762 55.669 256.289 55.9472 256.916 56.1839C257.556 56.4207 258.272 56.6278 259.065 56.8054L262.048 57.5156C263.776 57.9062 265.273 58.4271 266.54 59.0781C267.818 59.7173 268.854 60.4927 269.647 61.4041C270.44 62.3037 270.985 63.3395 271.281 64.5114C271.577 65.6832 271.6 66.9972 271.352 68.4531C270.973 70.7495 270.068 72.7204 268.635 74.3658C267.215 76.0111 265.356 77.2718 263.06 78.1477C260.775 79.0237 258.118 79.4616 255.088 79.4616C252.057 79.4616 249.483 79.0059 247.364 78.0945C245.257 77.1712 243.73 75.7803 242.783 73.9219C241.836 72.0634 241.581 69.7197 242.019 66.8906H250.418C250.288 68.0625 250.436 69.0391 250.862 69.8203C251.3 70.6016 251.974 71.1934 252.886 71.5959C253.797 71.9983 254.898 72.1996 256.188 72.1996C257.372 72.1996 258.408 72.0398 259.296 71.7202C260.195 71.4006 260.911 70.9567 261.444 70.3885C261.989 69.8203 262.32 69.1693 262.438 68.4354C262.557 67.7607 262.444 67.1747 262.101 66.6776C261.77 66.1804 261.201 65.7483 260.397 65.3814C259.603 65.0144 258.562 64.683 257.272 64.3871L253.632 63.4993C250.625 62.7654 248.346 61.5935 246.796 59.9837C245.257 58.3738 244.712 56.1899 245.162 53.4318C245.541 51.1709 246.476 49.1941 247.968 47.5014C249.471 45.8087 251.371 44.4948 253.667 43.5597C255.975 42.6127 258.514 42.1392 261.284 42.1392C264.102 42.1392 266.469 42.6186 268.387 43.5774C270.316 44.5244 271.707 45.862 272.559 47.5902C273.423 49.3066 273.672 51.313 273.305 53.6094H264.889ZM274.051 79L280.088 42.6364H288.877L286.338 58.0128H286.817L301.377 42.6364H311.728L296.192 58.8651L305.922 79H295.411L288.806 64.7067L284.473 69.1989L282.84 79H274.051ZM344.261 61.3864C343.598 65.3045 342.296 68.6129 340.355 71.3118C338.425 73.9988 336.076 76.0348 333.306 77.4197C330.548 78.8047 327.583 79.4972 324.41 79.4972C321.06 79.4972 318.16 78.7514 315.71 77.2599C313.26 75.7685 311.478 73.5964 310.366 70.7436C309.265 67.8909 309.052 64.4285 309.726 60.3565C310.366 56.4384 311.65 53.1241 313.579 50.4134C315.521 47.7027 317.882 45.6489 320.664 44.2521C323.457 42.8435 326.452 42.1392 329.648 42.1392C332.974 42.1392 335.857 42.8909 338.295 44.3942C340.745 45.8975 342.521 48.0814 343.622 50.946C344.723 53.8106 344.936 57.2907 344.261 61.3864ZM335.472 60.3565C335.839 58.072 335.839 56.1484 335.472 54.5859C335.117 53.0234 334.419 51.8456 333.377 51.0526C332.335 50.2476 330.98 49.8452 329.311 49.8452C327.464 49.8452 325.795 50.3009 324.304 51.2124C322.824 52.112 321.587 53.4259 320.593 55.1541C319.598 56.8705 318.906 58.9479 318.515 61.3864C318.113 63.6946 318.101 65.6181 318.48 67.157C318.87 68.6958 319.598 69.8558 320.664 70.6371C321.729 71.4065 323.084 71.7912 324.73 71.7912C326.565 71.7912 328.216 71.3473 329.684 70.4595C331.151 69.5717 332.377 68.2756 333.359 66.571C334.353 64.8665 335.058 62.795 335.472 60.3565ZM383.714 61.3864C383.051 65.3045 381.749 68.6129 379.808 71.3118C377.879 73.9988 375.529 76.0348 372.759 77.4197C370.001 78.8047 367.036 79.4972 363.863 79.4972C360.513 79.4972 357.613 78.7514 355.163 77.2599C352.713 75.7685 350.931 73.5964 349.819 70.7436C348.718 67.8909 348.505 64.4285 349.179 60.3565C349.819 56.4384 351.103 53.1241 353.032 50.4134C354.974 47.7027 357.335 45.6489 360.117 44.2521C362.91 42.8435 365.905 42.1392 369.101 42.1392C372.428 42.1392 375.31 42.8909 377.748 44.3942C380.199 45.8975 381.974 48.0814 383.075 50.946C384.176 53.8106 384.389 57.2907 383.714 61.3864ZM374.925 60.3565C375.292 58.072 375.292 56.1484 374.925 54.5859C374.57 53.0234 373.872 51.8456 372.83 51.0526C371.788 50.2476 370.433 49.8452 368.764 49.8452C366.917 49.8452 365.248 50.3009 363.757 51.2124C362.277 52.112 361.04 53.4259 360.046 55.1541C359.052 56.8705 358.359 58.9479 357.968 61.3864C357.566 63.6946 357.554 65.6181 357.933 67.157C358.324 68.6958 359.052 69.8558 360.117 70.6371C361.182 71.4065 362.538 71.7912 364.183 71.7912C366.018 71.7912 367.669 71.3473 369.137 70.4595C370.605 69.5717 371.83 68.2756 372.812 66.571C373.807 64.8665 374.511 62.795 374.925 60.3565Z" fill="#141345"/>
<path d="M140.317 79H130.871L149.177 42.6364H160.878L167.11 79H157.664L153.669 51.7983H153.385L140.317 79ZM141.453 64.6889H161.198L160.061 71.3651H140.317L141.453 64.6889ZM171.025 79L177.062 42.6364H192.226C194.948 42.6364 197.168 43.0211 198.884 43.7905C200.6 44.5599 201.808 45.6371 202.506 47.022C203.216 48.407 203.418 50.0109 203.11 51.8338C202.861 53.2069 202.352 54.438 201.583 55.527C200.825 56.6042 199.878 57.5038 198.742 58.2259C197.606 58.9361 196.351 59.4332 194.978 59.7173L194.907 60.0724C196.374 60.1316 197.671 60.5223 198.795 61.2443C199.932 61.9664 200.772 62.9785 201.316 64.2805C201.861 65.5708 201.985 67.0859 201.689 68.826C201.37 70.7791 200.583 72.5251 199.328 74.0639C198.085 75.5909 196.446 76.7983 194.41 77.6861C192.374 78.562 190.018 79 187.343 79H171.025ZM181.022 71.9155H186.455C188.337 71.9155 189.793 71.5545 190.823 70.8324C191.865 70.0985 192.48 69.0923 192.669 67.8139C192.823 66.8788 192.741 66.0739 192.421 65.3991C192.101 64.7126 191.569 64.1858 190.823 63.8189C190.077 63.4401 189.136 63.2507 188 63.2507H182.407L181.022 71.9155ZM183.383 57.5866H188.266C189.213 57.5866 190.083 57.4268 190.876 57.1072C191.681 56.7876 192.344 56.326 192.865 55.7223C193.397 55.1186 193.729 54.3906 193.859 53.5384C194.06 52.3191 193.782 51.3603 193.025 50.6619C192.267 49.9635 191.16 49.6143 189.704 49.6143H184.697L183.383 57.5866ZM232.265 42.6364H241.036L237.147 66.0916C236.698 68.8023 235.662 71.1638 234.04 73.1761C232.43 75.1766 230.377 76.7273 227.879 77.8281C225.381 78.9171 222.6 79.4616 219.534 79.4616C216.456 79.4616 213.858 78.9171 211.739 77.8281C209.62 76.7273 208.087 75.1766 207.14 73.1761C206.193 71.1638 205.939 68.8023 206.377 66.0916L210.265 42.6364H219.054L215.272 65.3281C215.071 66.5829 215.166 67.7015 215.557 68.6839C215.959 69.6546 216.61 70.424 217.51 70.9922C218.409 71.5485 219.51 71.8267 220.812 71.8267C222.126 71.8267 223.328 71.5485 224.417 70.9922C225.506 70.424 226.405 69.6546 227.116 68.6839C227.826 67.7015 228.281 66.5829 228.483 65.3281L232.265 42.6364Z" fill="white"/>
<line x1="85" y1="53" x2="119" y2="53" stroke="white" stroke-width="10" stroke-linecap="round"/>
<line x1="119.901" y1="68.8276" x2="85.904" y2="69.2419" stroke="white" stroke-width="10" stroke-linecap="round"/>
<line x1="89" y1="42" x2="115" y2="42" stroke="white" stroke-width="10" stroke-linecap="round"/>
<line x1="116.036" y1="79.8755" x2="90.0377" y2="80.1923" stroke="white" stroke-width="10" stroke-linecap="round"/>
<line x1="94" y1="31" x2="109" y2="31" stroke="white" stroke-width="10" stroke-linecap="round"/>
<line x1="111.17" y1="90.9356" x2="96.1713" y2="91.1184" stroke="white" stroke-width="10" stroke-linecap="round"/>
<line x1="102.486" y1="46.0341" x2="102.486" y2="26.0341" stroke="#141345" stroke-width="4"/>
<line x1="103.428" y1="76.9942" x2="103.672" y2="96.9928" stroke="#141345" stroke-width="4"/>
<line x1="133.991" y1="61.4965" x2="236.002" y2="61.4965" stroke="#141345" stroke-width="8" stroke-linecap="square"/>
<circle cx="389" cy="73" r="4" fill="white"/>
<path d="M193.263 60.7634L171.513 73.3208V48.206L193.263 60.7634Z" fill="#141345"/>
<path d="M167.812 88.9811L151.124 86.339L172.187 72.6605L167.812 88.9811Z" fill="#141345"/>
</svg>
