<svg width="496" height="122" viewBox="0 0 496 122" fill="none" xmlns="http://www.w3.org/2000/svg">
<rect x="30" y="7" width="210" height="108" rx="13" fill="#141345"/>
<path d="M259.192 53.6094C259.287 52.2718 258.932 51.236 258.127 50.5021C257.334 49.7682 256.079 49.4013 254.363 49.4013C253.227 49.4013 252.256 49.5492 251.451 49.8452C250.646 50.1293 250.013 50.5317 249.551 51.0526C249.089 51.5616 248.799 52.1534 248.681 52.8281C248.575 53.3608 248.604 53.8343 248.77 54.2486C248.936 54.6629 249.226 55.0298 249.64 55.3494C250.066 55.669 250.593 55.9472 251.22 56.1839C251.859 56.4207 252.576 56.6278 253.369 56.8054L256.352 57.5156C258.08 57.9062 259.577 58.4271 260.844 59.0781C262.122 59.7173 263.158 60.4927 263.951 61.4041C264.744 62.3037 265.289 63.3395 265.585 64.5114C265.88 65.6832 265.904 66.9972 265.656 68.4531C265.277 70.7495 264.371 72.7204 262.939 74.3658C261.518 76.0111 259.66 77.2718 257.364 78.1477C255.079 79.0237 252.422 79.4616 249.391 79.4616C246.361 79.4616 243.786 79.0059 241.668 78.0945C239.561 77.1712 238.034 75.7803 237.087 73.9219C236.14 72.0634 235.885 69.7197 236.323 66.8906H244.722C244.591 68.0625 244.739 69.0391 245.165 69.8203C245.603 70.6016 246.278 71.1934 247.19 71.5959C248.101 71.9983 249.202 72.1996 250.492 72.1996C251.676 72.1996 252.712 72.0398 253.599 71.7202C254.499 71.4006 255.215 70.9567 255.748 70.3885C256.292 69.8203 256.624 69.1693 256.742 68.4354C256.861 67.7607 256.748 67.1747 256.405 66.6776C256.073 66.1804 255.505 65.7483 254.7 65.3814C253.907 65.0144 252.866 64.683 251.575 64.3871L247.935 63.4993C244.929 62.7654 242.65 61.5935 241.099 59.9837C239.561 58.3738 239.016 56.1899 239.466 53.4318C239.845 51.1709 240.78 49.1941 242.271 47.5014C243.775 45.8087 245.674 44.4948 247.971 43.5597C250.279 42.6127 252.818 42.1392 255.588 42.1392C258.405 42.1392 260.773 42.6186 262.69 43.5774C264.62 44.5244 266.011 45.862 266.863 47.5902C267.727 49.3066 267.976 51.313 267.609 53.6094H259.192ZM268.354 79L274.391 42.6364H283.18L280.641 58.0128H281.121L295.68 42.6364H306.032L290.496 58.8651L300.226 79H289.714L283.109 64.7067L278.777 69.1989L277.143 79H268.354ZM338.565 61.3864C337.902 65.3045 336.6 68.6129 334.659 71.3118C332.729 73.9988 330.379 76.0348 327.61 77.4197C324.852 78.8047 321.886 79.4972 318.714 79.4972C315.364 79.4972 312.464 78.7514 310.014 77.2599C307.563 75.7685 305.782 73.5964 304.669 70.7436C303.568 67.8909 303.355 64.4285 304.03 60.3565C304.669 56.4384 305.954 53.1241 307.883 50.4134C309.824 47.7027 312.186 45.6489 314.968 44.2521C317.761 42.8435 320.756 42.1392 323.952 42.1392C327.278 42.1392 330.16 42.8909 332.599 44.3942C335.049 45.8975 336.825 48.0814 337.926 50.946C339.026 53.8106 339.24 57.2907 338.565 61.3864ZM329.776 60.3565C330.143 58.072 330.143 56.1484 329.776 54.5859C329.421 53.0234 328.722 51.8456 327.681 51.0526C326.639 50.2476 325.284 49.8452 323.615 49.8452C321.768 49.8452 320.099 50.3009 318.607 51.2124C317.128 52.112 315.891 53.4259 314.896 55.1541C313.902 56.8705 313.21 58.9479 312.819 61.3864C312.417 63.6946 312.405 65.6181 312.784 67.157C313.174 68.6958 313.902 69.8558 314.968 70.6371C316.033 71.4065 317.388 71.7912 319.034 71.7912C320.868 71.7912 322.52 71.3473 323.987 70.4595C325.455 69.5717 326.68 68.2756 327.663 66.571C328.657 64.8665 329.361 62.795 329.776 60.3565ZM378.018 61.3864C377.355 65.3045 376.053 68.6129 374.112 71.3118C372.182 73.9988 369.833 76.0348 367.063 77.4197C364.305 78.8047 361.339 79.4972 358.167 79.4972C354.817 79.4972 351.917 78.7514 349.467 77.2599C347.017 75.7685 345.235 73.5964 344.122 70.7436C343.021 67.8909 342.808 64.4285 343.483 60.3565C344.122 56.4384 345.407 53.1241 347.336 50.4134C349.277 47.7027 351.639 45.6489 354.421 44.2521C357.214 42.8435 360.209 42.1392 363.405 42.1392C366.731 42.1392 369.614 42.8909 372.052 44.3942C374.502 45.8975 376.278 48.0814 377.379 50.946C378.48 53.8106 378.693 57.2907 378.018 61.3864ZM369.229 60.3565C369.596 58.072 369.596 56.1484 369.229 54.5859C368.874 53.0234 368.175 51.8456 367.134 51.0526C366.092 50.2476 364.737 49.8452 363.068 49.8452C361.221 49.8452 359.552 50.3009 358.061 51.2124C356.581 52.112 355.344 53.4259 354.35 55.1541C353.355 56.8705 352.663 58.9479 352.272 61.3864C351.87 63.6946 351.858 65.6181 352.237 67.157C352.627 68.6958 353.355 69.8558 354.421 70.6371C355.486 71.4065 356.841 71.7912 358.487 71.7912C360.321 71.7912 361.973 71.3473 363.441 70.4595C364.908 69.5717 366.133 68.2756 367.116 66.571C368.11 64.8665 368.815 62.795 369.229 60.3565ZM380.22 79L386.257 42.6364H411.079L409.872 49.7741H393.838L392.631 57.2315H407.084L405.877 64.3871H391.423L389.009 79H380.22ZM424.294 42.6364L418.257 79H409.468L415.505 42.6364H424.294ZM427.414 49.7741L428.622 42.6364H459.357L458.149 49.7741H447.123L442.294 79H433.629L438.458 49.7741H427.414Z" fill="#141345"/>
<path d="M140.317 79H130.871L149.177 42.6364H160.878L167.11 79H157.664L153.669 51.7983H153.385L140.317 79ZM141.453 64.6889H161.198L160.061 71.3651H140.317L141.453 64.6889ZM171.025 79L177.062 42.6364H192.226C194.948 42.6364 197.168 43.0211 198.884 43.7905C200.6 44.5599 201.808 45.6371 202.506 47.022C203.216 48.407 203.418 50.0109 203.11 51.8338C202.861 53.2069 202.352 54.438 201.583 55.527C200.825 56.6042 199.878 57.5038 198.742 58.2259C197.606 58.9361 196.351 59.4332 194.978 59.7173L194.907 60.0724C196.374 60.1316 197.671 60.5223 198.795 61.2443C199.932 61.9664 200.772 62.9785 201.316 64.2805C201.861 65.5708 201.985 67.0859 201.689 68.826C201.37 70.7791 200.583 72.5251 199.328 74.0639C198.085 75.5909 196.446 76.7983 194.41 77.6861C192.374 78.562 190.018 79 187.343 79H171.025ZM181.022 71.9155H186.455C188.337 71.9155 189.793 71.5545 190.823 70.8324C191.865 70.0985 192.48 69.0923 192.669 67.8139C192.823 66.8788 192.741 66.0739 192.421 65.3991C192.101 64.7126 191.569 64.1858 190.823 63.8189C190.077 63.4401 189.136 63.2507 188 63.2507H182.407L181.022 71.9155ZM183.383 57.5866H188.266C189.213 57.5866 190.083 57.4268 190.876 57.1072C191.681 56.7876 192.344 56.326 192.865 55.7223C193.397 55.1186 193.729 54.3906 193.859 53.5384C194.06 52.3191 193.782 51.3603 193.025 50.6619C192.267 49.9635 191.16 49.6143 189.704 49.6143H184.697L183.383 57.5866ZM232.265 42.6364H241.036L237.147 66.0916C236.698 68.8023 235.662 71.1638 234.04 73.1761C232.43 75.1766 230.377 76.7273 227.879 77.8281C225.381 78.9171 222.6 79.4616 219.534 79.4616C216.456 79.4616 213.858 78.9171 211.739 77.8281C209.62 76.7273 208.087 75.1766 207.14 73.1761C206.193 71.1638 205.939 68.8023 206.377 66.0916L210.265 42.6364H219.054L215.272 65.3281C215.071 66.5829 215.166 67.7015 215.557 68.6839C215.959 69.6546 216.61 70.424 217.51 70.9922C218.409 71.5485 219.51 71.8267 220.812 71.8267C222.126 71.8267 223.328 71.5485 224.417 70.9922C225.506 70.424 226.405 69.6546 227.116 68.6839C227.826 67.7015 228.281 66.5829 228.483 65.3281L232.265 42.6364Z" fill="white"/>
<line x1="85" y1="53" x2="119" y2="53" stroke="white" stroke-width="10" stroke-linecap="round"/>
<line x1="119.901" y1="68.8276" x2="85.904" y2="69.2419" stroke="white" stroke-width="10" stroke-linecap="round"/>
<line x1="89" y1="42" x2="115" y2="42" stroke="white" stroke-width="10" stroke-linecap="round"/>
<line x1="116.036" y1="79.8755" x2="90.0377" y2="80.1923" stroke="white" stroke-width="10" stroke-linecap="round"/>
<line x1="94" y1="31" x2="109" y2="31" stroke="white" stroke-width="10" stroke-linecap="round"/>
<line x1="111.17" y1="90.9356" x2="96.1713" y2="91.1184" stroke="white" stroke-width="10" stroke-linecap="round"/>
<line x1="102.486" y1="46.0341" x2="102.486" y2="26.0341" stroke="#141345" stroke-width="4"/>
<line x1="103.428" y1="76.9942" x2="103.672" y2="96.9928" stroke="#141345" stroke-width="4"/>
<line x1="133.991" y1="61.4965" x2="236.002" y2="61.4965" stroke="#141345" stroke-width="8" stroke-linecap="square"/>
<path d="M193.263 60.7634L171.513 73.3208V48.206L193.263 60.7634Z" fill="#141345"/>
<path d="M167.812 88.9811L151.124 86.339L172.187 72.6605L167.812 88.9811Z" fill="#141345"/>
</svg>
